<svg width="20" height="20" viewBox="0 0 20 20" fill="none" xmlns="http://www.w3.org/2000/svg">
<path d="M18.5416 14.1041C18.361 14.1041 18.2117 14.0451 18.0937 13.927C17.9756 13.809 17.9166 13.6597 17.9166 13.4791V8.22913L10.5833 12.1875C10.486 12.243 10.3888 12.2812 10.2916 12.302C10.1944 12.3229 10.0902 12.3333 9.97909 12.3333C9.86797 12.3333 9.76728 12.3229 9.677 12.302C9.58672 12.2812 9.49297 12.243 9.39575 12.1875L1.83325 8.04163C1.72214 7.98607 1.64228 7.90968 1.59367 7.81246C1.54506 7.71524 1.52075 7.61107 1.52075 7.49996C1.52075 7.38885 1.54506 7.28468 1.59367 7.18746C1.64228 7.09024 1.72214 7.01385 1.83325 6.95829L9.37492 2.83329C9.47214 2.77774 9.56936 2.73607 9.66659 2.70829C9.76381 2.68051 9.86797 2.66663 9.97909 2.66663C10.0902 2.66663 10.1944 2.68051 10.2916 2.70829C10.3888 2.73607 10.486 2.77774 10.5833 2.83329L18.8333 7.31246C18.9444 7.3819 19.0277 7.46524 19.0833 7.56246C19.1388 7.65968 19.1666 7.76385 19.1666 7.87496V13.4791C19.1666 13.6597 19.1076 13.809 18.9895 13.927C18.8714 14.0451 18.7221 14.1041 18.5416 14.1041ZM9.97909 17.3125C9.86797 17.3125 9.76381 17.302 9.66659 17.2812C9.56936 17.2604 9.47214 17.2222 9.37492 17.1666L4.58325 14.5416C4.38881 14.4305 4.23256 14.2777 4.1145 14.0833C3.99645 13.8888 3.93742 13.6736 3.93742 13.4375V9.81246L9.12492 12.6458C9.26381 12.7152 9.4027 12.7847 9.54158 12.8541C9.68047 12.9236 9.82631 12.9583 9.97909 12.9583C10.1319 12.9583 10.2812 12.9236 10.427 12.8541C10.5728 12.7847 10.7152 12.7152 10.8541 12.6458L16.0208 9.81246V13.4375C16.0208 13.6736 15.9617 13.8888 15.8437 14.0833C15.7256 14.2777 15.5694 14.4305 15.3749 14.5416L10.5833 17.1666C10.486 17.2222 10.3888 17.2604 10.2916 17.2812C10.1944 17.302 10.0902 17.3125 9.97909 17.3125Z" fill="url(#paint0_linear_213_81)"/>
<defs>
<linearGradient id="paint0_linear_213_81" x1="10.3437" y1="2.66663" x2="10.3437" y2="17.3125" gradientUnits="userSpaceOnUse">
<stop stop-color="#E08ADE"/>
<stop offset="1" stop-color="#8E348D"/>
</linearGradient>
</defs>
</svg>
