<svg width="22" height="22" viewBox="0 0 22 22" fill="none" xmlns="http://www.w3.org/2000/svg">
<path fill-rule="evenodd" clip-rule="evenodd" d="M11 0C4.9235 0 0 5.04788 0 11.2779C0 16.2597 3.15104 20.4889 7.52311 21.9794C8.07454 22.0822 8.27507 21.7371 8.27507 21.436C8.27507 21.168 8.26432 20.4595 8.26074 19.5197C5.19922 20.1988 4.55469 18.0071 4.55469 18.0071C4.05339 16.7039 3.33366 16.3551 3.33366 16.3551C2.33464 15.6576 3.40885 15.6723 3.40885 15.6723C4.51172 15.753 5.0918 16.8324 5.0918 16.8324C6.07292 18.5578 7.66634 18.0585 8.29297 17.7722C8.39323 17.0416 8.67969 16.546 8.99121 16.2633C6.54915 15.9807 3.98177 15.0115 3.98177 10.6905C3.98177 9.45696 4.41146 8.45106 5.11328 7.66176C5.00228 7.37908 4.62272 6.23 5.2207 4.67709C5.2207 4.67709 6.14453 4.37605 8.24642 5.83351C9.1237 5.58387 10.0654 5.45905 11 5.45538C11.9346 5.45905 12.8763 5.58387 13.7536 5.83351C15.8555 4.37605 16.7757 4.67709 16.7757 4.67709C17.3773 6.23 17.0013 7.37908 16.8867 7.66176C17.5921 8.45106 18.0146 9.45696 18.0146 10.6905C18.0146 15.0225 15.4437 15.9733 12.9945 16.256C13.3883 16.6011 13.7393 17.2913 13.7393 18.3412C13.7393 19.8501 13.7285 21.0652 13.7285 21.436C13.7285 21.7371 13.9255 22.0895 14.484 21.9794C18.8525 20.4852 22 16.2597 22 11.2779C22 5.04788 17.0765 0 11 0Z" fill="#EF9BED"/>
</svg>
