<svg width="32" height="32" viewBox="0 0 32 32" fill="none" xmlns="http://www.w3.org/2000/svg">
<g clip-path="url(#clip0_221_25)">
<path d="M4.51253 12.6311C5.13741 12.6311 5.72212 12.7576 6.26666 13.0108C6.82013 13.253 7.30218 13.6052 7.71281 14.0675C8.13238 14.5298 8.45821 15.0802 8.69031 15.7186C8.92241 16.3461 9.03845 17.045 9.03845 17.8155C9.03845 18.586 8.92241 19.2905 8.69031 19.9289C8.45821 20.5564 8.13238 21.1012 7.71281 21.5635C7.30218 22.0258 6.82013 22.3836 6.26666 22.6368C5.72212 22.8789 5.13741 23 4.51253 23C3.88765 23 3.30294 22.8789 2.7584 22.6368C2.21386 22.3836 1.73181 22.0258 1.31225 21.5635C0.901614 21.1012 0.580246 20.5564 0.348148 19.9289C0.116049 19.2905 0 18.586 0 17.8155C0 17.045 0.116049 16.3461 0.348148 15.7186C0.580246 15.0802 0.901614 14.5298 1.31225 14.0675C1.73181 13.6052 2.21386 13.253 2.7584 13.0108C3.30294 12.7576 3.88765 12.6311 4.51253 12.6311ZM4.51253 22.5047C5.17312 22.5047 5.77122 22.3065 6.30683 21.9103C6.84245 21.514 7.26647 20.9636 7.57891 20.2592C7.89135 19.5547 8.04757 18.7402 8.04757 17.8155C8.04757 16.8799 7.89135 16.0654 7.57891 15.3719C7.26647 14.6674 6.84245 14.1171 6.30683 13.7208C5.77122 13.3245 5.17312 13.1264 4.51253 13.1264C3.86087 13.1264 3.26723 13.3245 2.73162 13.7208C2.19601 14.1171 1.77198 14.6674 1.45954 15.3719C1.1471 16.0654 0.990882 16.8799 0.990882 17.8155C0.990882 18.7402 1.1471 19.5547 1.45954 20.2592C1.77198 20.9636 2.19601 21.514 2.73162 21.9103C3.26723 22.3065 3.86087 22.5047 4.51253 22.5047Z" fill="url(#paint0_linear_221_25)"/>
<path d="M12.9185 12.8622V22.7688H12.0749V12.8622H12.9185ZM12.1151 21.7121V22.7688H10.9769V22.6037C10.9769 22.6037 11.0082 22.6037 11.0706 22.6037C11.1331 22.6037 11.1644 22.6037 11.1644 22.6037C11.4143 22.6037 11.6241 22.5157 11.7937 22.3396C11.9723 22.1634 12.066 21.9543 12.0749 21.7121H12.1151ZM12.8783 21.7121H12.9185C12.9274 21.9543 13.0167 22.1634 13.1863 22.3396C13.3648 22.5157 13.5791 22.6037 13.829 22.6037C13.829 22.6037 13.8558 22.6037 13.9094 22.6037C13.9719 22.6037 14.0031 22.6037 14.0031 22.6037L14.0165 22.7688H12.8783V21.7121ZM12.8783 13.9189V12.8622H14.0165L14.0031 13.0273C14.0031 13.0273 13.9719 13.0273 13.9094 13.0273C13.8558 13.0273 13.829 13.0273 13.829 13.0273C13.5791 13.0273 13.3648 13.1154 13.1863 13.2915C13.0167 13.4566 12.9274 13.6658 12.9185 13.9189H12.8783ZM12.1151 13.9189H12.0749C12.066 13.6658 11.9723 13.4566 11.7937 13.2915C11.6241 13.1154 11.4143 13.0273 11.1644 13.0273C11.1554 13.0273 11.1197 13.0273 11.0573 13.0273C11.0037 13.0273 10.9769 13.0273 10.9769 13.0273V12.8622H12.1151V13.9189Z" fill="url(#paint1_linear_221_25)"/>
<path d="M19.8538 23L16.1715 12.9613H17.2293L20.0815 21.5305L19.8538 23ZM19.8538 23L19.7601 21.8607L22.8265 12.9118H23.6701L20.4966 21.2994C20.4966 21.2994 20.4698 21.3654 20.4162 21.4975C20.3716 21.6296 20.3136 21.7947 20.2422 21.9928C20.1797 22.18 20.1217 22.3671 20.0681 22.5542C20.0145 22.7413 19.9833 22.8899 19.9744 23H19.8538ZM22.4382 14.0675C22.5364 13.7373 22.523 13.4841 22.398 13.308C22.273 13.1209 22.1302 13.0273 21.9695 13.0273H21.8758V12.8622L24.4199 12.8622V13.0273C24.4199 13.0273 24.4021 13.0273 24.3664 13.0273C24.3307 13.0273 24.3128 13.0273 24.3128 13.0273C24.1254 13.0273 23.9334 13.1099 23.737 13.275C23.5406 13.4291 23.371 13.6933 23.2282 14.0675H22.4382ZM17.5909 14.0675H16.5732C16.4393 13.6933 16.2742 13.4291 16.0778 13.275C15.8814 13.1099 15.6939 13.0273 15.5154 13.0273C15.5154 13.0273 15.4975 13.0273 15.4618 13.0273C15.4261 13.0273 15.4083 13.0273 15.4083 13.0273V12.8622H18.1533V13.0273H18.0462C17.8944 13.0273 17.756 13.1209 17.6311 13.308C17.515 13.4841 17.5016 13.7373 17.5909 14.0675Z" fill="url(#paint2_linear_221_25)"/>
<path d="M27.6481 12.8622V22.7688H26.7912V12.8622H27.6481ZM31.2501 22.257L31.2234 22.7688H27.6214V22.257H31.2501ZM30.6208 17.5679V18.0632H27.6214V17.5679H30.6208ZM31.2367 12.8622V13.3741H27.6214V12.8622H31.2367ZM32 20.4078L31.2635 22.7688H29.2282L29.6835 22.257C30.1298 22.257 30.4869 22.18 30.7547 22.0258C31.0314 21.8607 31.2546 21.6406 31.4242 21.3654C31.5938 21.0792 31.7411 20.76 31.8661 20.4078H32ZM30.6208 18.0302V18.9713H30.4735V18.7567C30.4735 18.5695 30.4289 18.4099 30.3396 18.2778C30.2503 18.1347 30.112 18.0632 29.9245 18.0632V18.0302H30.6208ZM30.6208 16.6598V17.6009H29.9245V17.5679C30.112 17.5679 30.2503 17.5018 30.3396 17.3697C30.4289 17.2266 30.4735 17.0615 30.4735 16.8744V16.6598H30.6208ZM31.2367 13.3245V14.4638H31.0895V14.2161C31.0895 13.985 31.027 13.7868 30.902 13.6217C30.7859 13.4566 30.6253 13.3741 30.4199 13.3741V13.3245H31.2367ZM31.2367 12.598V13.0273L29.7103 12.8622C29.987 12.8622 30.2816 12.8347 30.594 12.7797C30.9065 12.7136 31.1207 12.6531 31.2367 12.598ZM26.8179 21.7121L26.992 22.7688H25.8271V22.6037C25.8271 22.6037 25.8583 22.6037 25.9208 22.6037C25.9833 22.6037 26.0145 22.6037 26.0145 22.6037C26.2377 22.6037 26.4207 22.5157 26.5635 22.3396C26.7064 22.1634 26.7822 21.9543 26.7912 21.7121H26.8179ZM26.8179 13.9024H26.7912C26.7822 13.6492 26.7064 13.4401 26.5635 13.275C26.4207 13.1099 26.2377 13.0273 26.0145 13.0273C26.0145 13.0273 25.9833 13.0273 25.9208 13.0273C25.8583 13.0273 25.8271 13.0273 25.8271 13.0273V12.8622H26.992L26.8179 13.9024Z" fill="url(#paint3_linear_221_25)"/>
<path d="M2.64 17.8023C2.47462 17.8023 2.33179 17.7282 2.21151 17.5799C2.09875 17.4316 2.04237 17.2508 2.04237 17.0376C2.04237 16.8152 2.09875 16.6344 2.21151 16.4954C2.33179 16.3563 2.47462 16.2868 2.64 16.2868C2.80539 16.2868 2.94446 16.3563 3.05722 16.4954C3.1775 16.6344 3.23763 16.8152 3.23763 17.0376C3.23763 17.2508 3.1775 17.4316 3.05722 17.5799C2.94446 17.7282 2.80539 17.8023 2.64 17.8023Z" fill="url(#paint4_linear_221_25)"/>
<path d="M5.73995 17.7328L5.73995 8H6.57437L6.57437 16.843H10.9946V17.7328H5.73995Z" fill="url(#paint5_linear_221_25)"/>
</g>
<defs>
<linearGradient id="paint0_linear_221_25" x1="16" y1="8" x2="16" y2="23" gradientUnits="userSpaceOnUse">
<stop stop-color="#854083"/>
<stop offset="1" stop-color="#B262B1"/>
</linearGradient>
<linearGradient id="paint1_linear_221_25" x1="16" y1="8" x2="16" y2="23" gradientUnits="userSpaceOnUse">
<stop stop-color="#854083"/>
<stop offset="1" stop-color="#B262B1"/>
</linearGradient>
<linearGradient id="paint2_linear_221_25" x1="16" y1="8" x2="16" y2="23" gradientUnits="userSpaceOnUse">
<stop stop-color="#854083"/>
<stop offset="1" stop-color="#B262B1"/>
</linearGradient>
<linearGradient id="paint3_linear_221_25" x1="16" y1="8" x2="16" y2="23" gradientUnits="userSpaceOnUse">
<stop stop-color="#854083"/>
<stop offset="1" stop-color="#B262B1"/>
</linearGradient>
<linearGradient id="paint4_linear_221_25" x1="16" y1="8" x2="16" y2="23" gradientUnits="userSpaceOnUse">
<stop stop-color="#854083"/>
<stop offset="1" stop-color="#B262B1"/>
</linearGradient>
<linearGradient id="paint5_linear_221_25" x1="16" y1="8" x2="16" y2="23" gradientUnits="userSpaceOnUse">
<stop stop-color="#854083"/>
<stop offset="1" stop-color="#B262B1"/>
</linearGradient>
<clipPath id="clip0_221_25">
<rect width="32" height="32" fill="white"/>
</clipPath>
</defs>
</svg>
