<svg width="50" height="57" viewBox="0 0 50 57" fill="none" xmlns="http://www.w3.org/2000/svg">
<path fill-rule="evenodd" clip-rule="evenodd" d="M25 3.16602C11.1898 3.16602 0 14.6385 0 28.7975C0 40.1198 7.16146 49.7316 17.098 53.1191C18.3512 53.3527 18.807 52.5684 18.807 51.8843C18.807 51.2752 18.7826 49.6649 18.7744 47.5289C11.8164 49.0725 10.3516 44.0913 10.3516 44.0913C9.21224 41.1294 7.5765 40.3367 7.5765 40.3367C5.30599 38.7514 7.7474 38.7848 7.7474 38.7848C10.2539 38.9684 11.5723 41.4214 11.5723 41.4214C13.8021 45.3429 17.4235 44.2082 18.8477 43.5574C19.0755 41.897 19.7266 40.7706 20.4346 40.1281C14.8844 39.4857 9.04948 37.283 9.04948 27.4626C9.04948 24.6591 10.026 22.373 11.6211 20.5791C11.3688 19.9366 10.5062 17.3251 11.8652 13.7958C11.8652 13.7958 13.9648 13.1116 18.7419 16.424C20.7357 15.8566 22.876 15.5729 25 15.5646C27.124 15.5729 29.2643 15.8566 31.2581 16.424C36.0352 13.1116 38.1266 13.7958 38.1266 13.7958C39.4938 17.3251 38.6393 19.9366 38.3789 20.5791C39.9821 22.373 40.9424 24.6591 40.9424 27.4626C40.9424 37.308 35.0993 39.469 29.5329 40.1115C30.4281 40.8958 31.2256 42.4643 31.2256 44.8506C31.2256 48.2798 31.2012 51.0416 31.2012 51.8843C31.2012 52.5684 31.6488 53.3694 32.9183 53.1191C42.8467 49.7233 50 40.1198 50 28.7975C50 14.6385 38.8102 3.16602 25 3.16602Z" fill="url(#paint0_linear_213_25)"/>
<defs>
<linearGradient id="paint0_linear_213_25" x1="25" y1="3.16602" x2="25" y2="53.166" gradientUnits="userSpaceOnUse">
<stop stop-color="#E08ADE"/>
<stop offset="1" stop-color="#8E348D"/>
</linearGradient>
</defs>
</svg>
