<svg width="50" height="50" viewBox="0 0 50 50" fill="none" xmlns="http://www.w3.org/2000/svg">
<path d="M5.68182 0C2.57457 0 0 2.57457 0 5.68182V44.3182C0 47.4254 2.57457 50 5.68182 50H44.3182C47.4254 50 50 47.4254 50 44.3182V5.68182C50 2.57457 47.4254 0 44.3182 0H5.68182ZM5.68182 4.54545H44.3182C44.9663 4.54545 45.4545 5.03374 45.4545 5.68182V44.3182C45.4545 44.9663 44.9663 45.4545 44.3182 45.4545H5.68182C5.03374 45.4545 4.54545 44.9663 4.54545 44.3182V5.68182C4.54545 5.03374 5.03374 4.54545 5.68182 4.54545ZM12.358 8.4517C10.2006 8.4517 8.4517 10.2006 8.4517 12.358C8.4517 14.5153 10.2006 16.2642 12.358 16.2642C14.5153 16.2642 16.2642 14.5153 16.2642 12.358C16.2642 10.2006 14.5153 8.4517 12.358 8.4517ZM32.8835 18.821C29.6254 18.821 27.4592 20.6055 26.5625 22.3011H26.4205V19.3182H20.0284V40.9091H26.7045V30.2557C26.7045 27.4414 27.2638 24.7159 30.7528 24.7159C34.1886 24.7159 34.233 27.8942 34.233 30.3977V40.9091H40.9091V29.0483C40.9091 23.2422 39.6751 18.821 32.8835 18.821ZM9.09091 19.3182V40.9091H15.8381V19.3182H9.09091Z" fill="url(#paint0_linear_278_2)"/>
<defs>
<linearGradient id="paint0_linear_278_2" x1="25" y1="0" x2="25" y2="50" gradientUnits="userSpaceOnUse">
<stop stop-color="#E08ADE"/>
<stop offset="1" stop-color="#8E348D"/>
</linearGradient>
</defs>
</svg>
