<svg width="20" height="20" viewBox="0 0 20 20" fill="none" xmlns="http://www.w3.org/2000/svg">
<path d="M9.89575 18.3333L13.6666 8.33329H15.3749L19.2499 18.3333H17.4374L16.5833 15.7083H12.5833L11.6041 18.3333H9.89575ZM13.0416 14.25H15.9999L14.5416 10.2083H14.4999L13.0416 14.25ZM3.33325 15.8333L2.18742 14.6875L6.43742 10.4375C5.90964 9.82635 5.44089 9.21176 5.03117 8.59371C4.62145 7.97565 4.26381 7.33329 3.95825 6.66663H5.77075C6.00686 7.12496 6.26728 7.55899 6.552 7.96871C6.83672 8.37843 7.15964 8.79857 7.52075 9.22913C8.14575 8.57635 8.66659 7.89926 9.08325 7.19788C9.49992 6.49649 9.85409 5.76385 10.1458 4.99996H0.833252V3.33329H6.66659V1.66663H8.33325V3.33329H14.1666V4.99996H11.8124C11.5069 5.95829 11.1006 6.89926 10.5937 7.82288C10.0867 8.74649 9.4652 9.62496 8.72909 10.4583L10.7708 12.5208L10.1458 14.2083L7.49992 11.6666L3.33325 15.8333Z" fill="url(#paint0_linear_213_72)"/>
<defs>
<linearGradient id="paint0_linear_213_72" x1="10.0416" y1="1.66663" x2="10.0416" y2="18.3333" gradientUnits="userSpaceOnUse">
<stop stop-color="#E08ADE"/>
<stop offset="1" stop-color="#8E348D"/>
</linearGradient>
</defs>
</svg>
