<svg width="50" height="50" viewBox="0 0 50 50" fill="none" xmlns="http://www.w3.org/2000/svg">
<g clip-path="url(#clip0_213_21)">
<path d="M25 -0.000976562C18.2083 -0.000976562 17.3605 0.0302734 14.6938 0.149023C12.0313 0.274023 10.2187 0.692773 8.625 1.31152C6.98125 1.94902 5.58542 2.80527 4.19583 4.19485C2.80625 5.58445 1.94792 6.9782 1.3125 8.62402C0.69375 10.2178 0.272917 12.0303 0.15 14.6928C0.025 17.3595 0 18.2073 0 24.999C0 31.7907 0.03125 32.6386 0.15 35.3053C0.275 37.9657 0.69375 39.7803 1.3125 41.374C1.95 43.0157 2.80625 44.4136 4.19583 45.8032C5.58542 47.1907 6.97917 48.0511 8.625 48.6865C10.2208 49.3032 12.0333 49.7261 14.6938 49.849C17.3605 49.974 18.2083 49.999 25 49.999C31.7917 49.999 32.6395 49.9678 35.3063 49.849C37.9667 49.724 39.7812 49.3032 41.375 48.6865C43.0167 48.049 44.4145 47.1907 45.8042 45.8032C47.1917 44.4136 48.052 43.022 48.6875 41.374C49.3042 39.7803 49.727 37.9657 49.85 35.3053C49.975 32.6386 50 31.7907 50 24.999C50 18.2073 49.9687 17.3595 49.85 14.6928C49.725 12.0324 49.3042 10.2157 48.6875 8.62402C48.05 6.98027 47.1917 5.58445 45.8042 4.19485C44.4145 2.80527 43.023 1.94695 41.375 1.31152C39.7812 0.692773 37.9667 0.271941 35.3063 0.149023C32.6395 0.0240234 31.7917 -0.000976562 25 -0.000976562ZM25 4.49902C31.673 4.49902 32.4687 4.53235 35.1042 4.64695C37.5417 4.76152 38.8645 5.1657 39.7438 5.51152C40.9145 5.9636 41.7437 6.50527 42.623 7.3782C43.4958 8.2532 44.0375 9.08445 44.4895 10.2553C44.8313 11.1344 45.2395 12.4574 45.35 14.8949C45.4688 17.5323 45.4958 18.324 45.4958 24.999C45.4958 31.674 45.4645 32.4678 45.3417 35.1032C45.2145 37.5407 44.8083 38.8636 44.4645 39.7428C43.998 40.9136 43.4667 41.7428 42.5917 42.622C41.7187 43.4948 40.875 44.0365 39.7167 44.4886C38.8417 44.8303 37.498 45.2386 35.0605 45.349C32.4062 45.4678 31.625 45.4948 24.9375 45.4948C18.248 45.4948 17.4667 45.4636 14.8146 45.3407C12.375 45.2136 11.0313 44.8073 10.1562 44.4636C8.97083 43.997 8.15625 43.4657 7.28333 42.5907C6.40625 41.7178 5.84583 40.874 5.40833 39.7157C5.06458 38.8407 4.66042 37.497 4.53333 35.0595C4.43958 32.4345 4.40625 31.624 4.40625 24.9678C4.40625 18.3095 4.43958 17.497 4.53333 14.8407C4.66042 12.4032 5.06458 11.0615 5.40833 10.1865C5.84583 8.99902 6.40625 8.18652 7.28333 7.30945C8.15625 6.43652 8.97083 5.87402 10.1562 5.4386C11.0313 5.09277 12.3458 4.68652 14.7833 4.56152C17.4395 4.46777 18.2208 4.43652 24.9062 4.43652L25 4.49902ZM25 12.1615C17.9063 12.1615 12.1625 17.9115 12.1625 24.999C12.1625 32.0928 17.9125 37.8365 25 37.8365C32.0937 37.8365 37.8375 32.0865 37.8375 24.999C37.8375 17.9053 32.0875 12.1615 25 12.1615ZM25 33.3323C20.3958 33.3323 16.6667 29.6032 16.6667 24.999C16.6667 20.3948 20.3958 16.6657 25 16.6657C29.6042 16.6657 33.3333 20.3948 33.3333 24.999C33.3333 29.6032 29.6042 33.3323 25 33.3323ZM41.3458 11.6553C41.3458 13.3115 40 14.6553 38.3458 14.6553C36.6895 14.6553 35.3458 13.3094 35.3458 11.6553C35.3458 10.0011 36.6917 8.65735 38.3458 8.65735C39.998 8.65527 41.3458 10.0011 41.3458 11.6553Z" fill="url(#paint0_linear_213_21)"/>
</g>
<defs>
<linearGradient id="paint0_linear_213_21" x1="25" y1="-0.000976563" x2="25" y2="49.999" gradientUnits="userSpaceOnUse">
<stop stop-color="#E08ADE"/>
<stop offset="1" stop-color="#8E348D"/>
</linearGradient>
<clipPath id="clip0_213_21">
<rect width="50" height="50" fill="white" transform="translate(0 -0.000976562)"/>
</clipPath>
</defs>
</svg>
