<svg width="281" height="40" viewBox="0 0 281 40" fill="none" xmlns="http://www.w3.org/2000/svg">
<path d="M7.99212 5.73599V32.76H20.9521L20.1361 39H0.120117V5.73599H7.99212Z" fill="#141414"/>
<path d="M46.8264 39H40.2504L39.9144 35.784C38.0584 38.472 35.4824 39.816 32.1864 39.816C29.8504 39.816 28.0744 39.112 26.8584 37.704C25.6744 36.296 25.0824 34.328 25.0824 31.8V13.512H32.6664V30.84C32.6664 32.088 32.8584 32.968 33.2424 33.48C33.6584 33.96 34.2824 34.2 35.1144 34.2C36.7144 34.2 38.0904 33.208 39.2424 31.224V13.512H46.8264V39Z" fill="#141414"/>
<path d="M61.8151 13.512V39H54.2311V13.512H61.8151ZM57.9751 0.071991C59.2871 0.071991 60.3591 0.487991 61.1911 1.31999C62.0551 2.11999 62.4871 3.14399 62.4871 4.39199C62.4871 5.63999 62.0551 6.67999 61.1911 7.51199C60.3591 8.31199 59.2871 8.71199 57.9751 8.71199C56.6631 8.71199 55.5911 8.31199 54.7591 7.51199C53.9271 6.67999 53.5111 5.63999 53.5111 4.39199C53.5111 3.14399 53.9271 2.11999 54.7591 1.31999C55.5911 0.487991 56.6631 0.071991 57.9751 0.071991Z" fill="#141414"/>
<path d="M78.194 12.696C80.018 12.696 81.73 12.968 83.33 13.512C84.93 14.056 86.338 14.824 87.554 15.816L84.77 20.088C82.69 18.776 80.594 18.12 78.482 18.12C77.49 18.12 76.722 18.296 76.178 18.648C75.666 18.968 75.41 19.432 75.41 20.04C75.41 20.52 75.522 20.92 75.746 21.24C76.002 21.528 76.498 21.832 77.234 22.152C77.97 22.472 79.106 22.856 80.642 23.304C83.298 24.072 85.266 25.08 86.546 26.328C87.858 27.544 88.514 29.24 88.514 31.416C88.514 33.144 88.018 34.648 87.026 35.928C86.034 37.176 84.674 38.136 82.946 38.808C81.218 39.48 79.298 39.816 77.186 39.816C75.042 39.816 73.042 39.48 71.186 38.808C69.362 38.136 67.81 37.208 66.53 36.024L70.226 31.896C72.37 33.56 74.626 34.392 76.994 34.392C78.146 34.392 79.042 34.184 79.682 33.768C80.354 33.352 80.69 32.76 80.69 31.992C80.69 31.384 80.562 30.904 80.306 30.552C80.05 30.2 79.554 29.88 78.818 29.592C78.082 29.272 76.914 28.888 75.314 28.44C72.786 27.704 70.898 26.68 69.65 25.368C68.402 24.056 67.778 22.424 67.778 20.472C67.778 19 68.194 17.688 69.026 16.536C69.89 15.352 71.106 14.424 72.674 13.752C74.274 13.048 76.114 12.696 78.194 12.696Z" fill="#141414"/>
<path d="M96.6451 31.128C97.8291 31.128 98.8371 31.56 99.6691 32.424C100.533 33.256 100.965 34.264 100.965 35.448C100.965 36.664 100.533 37.704 99.6691 38.568C98.8371 39.4 97.8291 39.816 96.6451 39.816C95.4291 39.816 94.3891 39.4 93.5251 38.568C92.6931 37.704 92.2771 36.664 92.2771 35.448C92.2771 34.264 92.6931 33.256 93.5251 32.424C94.3891 31.56 95.4291 31.128 96.6451 31.128Z" fill="#141414"/>
<path d="M119.479 4.91999C124.215 4.91999 127.895 6.43999 130.519 9.47999C133.175 12.52 134.503 16.808 134.503 22.344C134.503 25.96 133.895 29.08 132.679 31.704C131.495 34.328 129.767 36.344 127.495 37.752C125.255 39.128 122.583 39.816 119.479 39.816C116.375 39.816 113.703 39.128 111.463 37.752C109.223 36.376 107.495 34.392 106.279 31.8C105.095 29.176 104.503 26.024 104.503 22.344C104.503 18.76 105.095 15.656 106.279 13.032C107.495 10.408 109.223 8.40799 111.463 7.03199C113.703 5.62399 116.375 4.91999 119.479 4.91999ZM119.479 10.68C117.207 10.68 115.511 11.608 114.391 13.464C113.303 15.288 112.759 18.248 112.759 22.344C112.759 26.44 113.319 29.416 114.439 31.272C115.559 33.128 117.239 34.056 119.479 34.056C121.783 34.056 123.479 33.144 124.567 31.32C125.687 29.464 126.247 26.472 126.247 22.344C126.247 18.216 125.687 15.24 124.567 13.416C123.447 11.592 121.751 10.68 119.479 10.68Z" fill="#141414"/>
<path d="M147.29 39.816C145.082 39.816 143.354 39.192 142.106 37.944C140.89 36.664 140.282 34.856 140.282 32.52V3.38399L147.866 2.56799V32.232C147.866 33.288 148.298 33.816 149.162 33.816C149.61 33.816 150.026 33.736 150.41 33.576L151.898 38.952C150.522 39.528 148.986 39.816 147.29 39.816Z" fill="#141414"/>
<path d="M163.796 13.512V39H156.212V13.512H163.796ZM159.956 0.071991C161.268 0.071991 162.34 0.487991 163.172 1.31999C164.036 2.11999 164.468 3.14399 164.468 4.39199C164.468 5.63999 164.036 6.67999 163.172 7.51199C162.34 8.31199 161.268 8.71199 159.956 8.71199C158.644 8.71199 157.572 8.31199 156.74 7.51199C155.908 6.67999 155.492 5.63999 155.492 4.39199C155.492 3.14399 155.908 2.11999 156.74 1.31999C157.572 0.487991 158.644 0.071991 159.956 0.071991Z" fill="#141414"/>
<path d="M193.135 13.512L185.119 39H176.143L167.935 13.512H176.191L180.703 33.24L185.407 13.512H193.135Z" fill="#141414"/>
<path d="M219.098 25.752C219.098 26.808 219.05 27.72 218.954 28.488H203.162C203.418 30.632 204.026 32.136 204.986 33C205.946 33.864 207.274 34.296 208.97 34.296C209.994 34.296 210.986 34.12 211.946 33.768C212.906 33.384 213.946 32.808 215.066 32.04L218.186 36.264C215.21 38.632 211.898 39.816 208.25 39.816C204.122 39.816 200.954 38.6 198.746 36.168C196.538 33.736 195.434 30.472 195.434 26.376C195.434 23.784 195.898 21.464 196.826 19.416C197.754 17.336 199.114 15.704 200.906 14.52C202.698 13.304 204.842 12.696 207.338 12.696C211.018 12.696 213.898 13.848 215.978 16.152C218.058 18.456 219.098 21.656 219.098 25.752ZM211.658 23.592C211.594 19.688 210.218 17.736 207.53 17.736C206.218 17.736 205.194 18.216 204.458 19.176C203.754 20.136 203.322 21.72 203.162 23.928H211.658V23.592Z" fill="#141414"/>
<path d="M232.382 13.512V39H224.798V13.512H232.382ZM228.542 0.071991C229.854 0.071991 230.926 0.487991 231.758 1.31999C232.622 2.11999 233.054 3.14399 233.054 4.39199C233.054 5.63999 232.622 6.67999 231.758 7.51199C230.926 8.31199 229.854 8.71199 228.542 8.71199C227.23 8.71199 226.158 8.31199 225.326 7.51199C224.494 6.67999 224.078 5.63999 224.078 4.39199C224.078 3.14399 224.494 2.11999 225.326 1.31999C226.158 0.487991 227.23 0.071991 228.542 0.071991Z" fill="#141414"/>
<path d="M253.609 12.792C254.537 12.792 255.385 12.904 256.153 13.128L254.953 20.472C253.993 20.248 253.225 20.136 252.649 20.136C251.145 20.136 249.993 20.664 249.193 21.72C248.425 22.744 247.817 24.296 247.369 26.376V39H239.785V13.512H246.409L247.033 18.456C247.609 16.696 248.473 15.32 249.625 14.328C250.809 13.304 252.137 12.792 253.609 12.792Z" fill="#141414"/>
<path d="M279.059 31.608C279.059 32.568 279.187 33.272 279.443 33.72C279.731 34.168 280.179 34.504 280.787 34.728L279.203 39.672C277.635 39.544 276.355 39.208 275.363 38.664C274.371 38.088 273.603 37.192 273.059 35.976C271.395 38.536 268.835 39.816 265.379 39.816C262.851 39.816 260.835 39.08 259.331 37.608C257.827 36.136 257.075 34.216 257.075 31.848C257.075 29.064 258.099 26.936 260.147 25.464C262.195 23.992 265.155 23.256 269.027 23.256H271.619V22.152C271.619 20.648 271.299 19.624 270.659 19.08C270.019 18.504 268.899 18.216 267.299 18.216C266.467 18.216 265.459 18.344 264.275 18.6C263.091 18.824 261.875 19.144 260.627 19.56L258.899 14.568C260.499 13.96 262.131 13.496 263.795 13.176C265.491 12.856 267.059 12.696 268.499 12.696C272.147 12.696 274.819 13.448 276.515 14.952C278.211 16.456 279.059 18.712 279.059 21.72V31.608ZM267.587 34.392C269.315 34.392 270.659 33.576 271.619 31.944V27.432H269.747C268.019 27.432 266.723 27.736 265.859 28.344C265.027 28.952 264.611 29.896 264.611 31.176C264.611 32.2 264.867 33 265.379 33.576C265.923 34.12 266.659 34.392 267.587 34.392Z" fill="#141414"/>
</svg>
