<svg width="400" height="420" viewBox="0 0 400 420" fill="none" xmlns="http://www.w3.org/2000/svg">
<path d="M0 63.253L400 0V356.747L0 420V63.253Z" fill="url(#paint0_linear_30_57)"/>
<g filter="url(#filter0_i_30_57)">
<path d="M255.362 220.218C255.362 272.423 216.162 314.856 167.681 314.856C119.2 314.856 80 272.423 80 220.218C80 168.014 119.2 125.581 167.681 125.581C216.162 125.581 255.362 168.014 255.362 220.218Z" stroke="url(#paint1_linear_30_57)" stroke-width="2"/>
</g>
<g filter="url(#filter1_i_30_57)">
<path d="M289.91 186.987C289.91 239.192 250.71 281.625 202.229 281.625C153.748 281.625 114.548 239.192 114.548 186.987C114.548 134.782 153.748 92.3494 202.229 92.3494C250.71 92.3494 289.91 134.782 289.91 186.987Z" stroke="url(#paint2_linear_30_57)" stroke-width="2"/>
</g>
<g filter="url(#filter2_i_30_57)">
<path d="M320 234.278C320 286.483 280.8 328.916 232.319 328.916C183.838 328.916 144.638 286.483 144.638 234.278C144.638 182.073 183.838 139.64 232.319 139.64C280.8 139.64 320 182.073 320 234.278Z" stroke="url(#paint3_linear_30_57)" stroke-width="2"/>
</g>
<path d="M163.007 199.46C164.977 199.46 166.821 199.828 168.538 200.565C170.283 201.27 171.803 202.296 173.098 203.642C174.421 204.988 175.448 206.591 176.18 208.449C176.912 210.276 177.278 212.311 177.278 214.554C177.278 216.797 176.912 218.849 176.18 220.708C175.448 222.534 174.421 224.121 173.098 225.467C171.803 226.813 170.283 227.854 168.538 228.591C166.821 229.296 164.977 229.649 163.007 229.649C161.037 229.649 159.192 229.296 157.476 228.591C155.759 227.854 154.239 226.813 152.916 225.467C151.621 224.121 150.608 222.534 149.876 220.708C149.143 218.849 148.778 216.797 148.778 214.554C148.778 212.311 149.143 210.276 149.876 208.449C150.608 206.591 151.621 204.988 152.916 203.642C154.239 202.296 155.759 201.27 157.476 200.565C159.192 199.828 161.037 199.46 163.007 199.46ZM163.007 228.207C165.09 228.207 166.976 227.63 168.664 226.476C170.353 225.322 171.69 223.72 172.676 221.669C173.661 219.618 174.153 217.246 174.153 214.554C174.153 211.831 173.661 209.459 172.676 207.44C171.69 205.389 170.353 203.786 168.664 202.632C166.976 201.479 165.09 200.902 163.007 200.902C160.952 200.902 159.08 201.479 157.391 202.632C155.702 203.786 154.366 205.389 153.38 207.44C152.394 209.459 151.902 211.831 151.902 214.554C151.902 217.246 152.394 219.618 153.38 221.669C154.366 223.72 155.702 225.322 157.391 226.476C159.08 227.63 160.952 228.207 163.007 228.207ZM189.512 200.133V228.976H186.852V200.133H189.512ZM186.979 225.899V228.976H183.39V228.495C183.39 228.495 183.489 228.495 183.686 228.495C183.882 228.495 183.981 228.495 183.981 228.495C184.769 228.495 185.431 228.238 185.966 227.726C186.529 227.214 186.824 226.604 186.852 225.899H186.979ZM189.386 225.899H189.512C189.54 226.604 189.822 227.214 190.357 227.726C190.92 228.238 191.596 228.495 192.383 228.495C192.383 228.495 192.468 228.495 192.637 228.495C192.833 228.495 192.932 228.495 192.932 228.495L192.974 228.976H189.386V225.899ZM189.386 203.209V200.133H192.974L192.932 200.613C192.932 200.613 192.833 200.613 192.637 200.613C192.468 200.613 192.383 200.613 192.383 200.613C191.596 200.613 190.92 200.87 190.357 201.382C189.822 201.863 189.54 202.472 189.512 203.209H189.386ZM186.979 203.209H186.852C186.824 202.472 186.529 201.863 185.966 201.382C185.431 200.87 184.769 200.613 183.981 200.613C183.953 200.613 183.84 200.613 183.643 200.613C183.474 200.613 183.39 200.613 183.39 200.613V200.133H186.979V203.209ZM211.381 229.649L199.77 200.421H203.106L212.099 225.371L211.381 229.649ZM211.381 229.649L211.086 226.332L220.754 200.277H223.414L213.408 224.697C213.408 224.697 213.323 224.89 213.154 225.274C213.013 225.659 212.83 226.14 212.606 226.717C212.408 227.262 212.226 227.806 212.057 228.351C211.888 228.896 211.789 229.329 211.761 229.649H211.381ZM219.53 203.642C219.839 202.68 219.797 201.943 219.403 201.431C219.009 200.885 218.559 200.613 218.052 200.613H217.757V200.133H225.779V200.613C225.779 200.613 225.722 200.613 225.61 200.613C225.497 200.613 225.441 200.613 225.441 200.613C224.85 200.613 224.244 200.854 223.626 201.334C223.006 201.783 222.471 202.553 222.021 203.642H219.53ZM204.246 203.642H201.037C200.614 202.553 200.093 201.783 199.474 201.334C198.854 200.854 198.263 200.613 197.701 200.613C197.701 200.613 197.644 200.613 197.532 200.613C197.419 200.613 197.363 200.613 197.363 200.613V200.133H206.019V200.613H205.681C205.202 200.613 204.766 200.885 204.372 201.431C204.006 201.943 203.963 202.68 204.246 203.642ZM235.958 200.133V228.976H233.256V200.133H235.958ZM247.316 227.486L247.231 228.976H235.873V227.486H247.316ZM245.331 213.833V215.275H235.873V213.833H245.331ZM247.273 200.133V201.623H235.873V200.133H247.273ZM249.68 222.102L247.358 228.976H240.94L242.376 227.486C243.783 227.486 244.909 227.262 245.753 226.813C246.626 226.332 247.33 225.691 247.864 224.89C248.399 224.056 248.863 223.128 249.258 222.102H249.68ZM245.331 215.179V217.919H244.867V217.294C244.867 216.749 244.726 216.285 244.444 215.9C244.163 215.484 243.727 215.275 243.136 215.275V215.179H245.331ZM245.331 211.189V213.929H243.136V213.833C243.727 213.833 244.163 213.641 244.444 213.256C244.726 212.84 244.867 212.359 244.867 211.814V211.189H245.331ZM247.273 201.479V204.796H246.809V204.074C246.809 203.401 246.612 202.825 246.218 202.344C245.852 201.863 245.346 201.623 244.698 201.623V201.479H247.273ZM247.273 199.363V200.613L242.46 200.133C243.332 200.133 244.261 200.053 245.247 199.892C246.232 199.7 246.908 199.524 247.273 199.363ZM233.34 225.899L233.889 228.976H230.216V228.495C230.216 228.495 230.314 228.495 230.511 228.495C230.708 228.495 230.807 228.495 230.807 228.495C231.51 228.495 232.088 228.238 232.538 227.726C232.988 227.214 233.228 226.604 233.256 225.899H233.34ZM233.34 203.161H233.256C233.228 202.424 232.988 201.815 232.538 201.334C232.088 200.854 231.51 200.613 230.807 200.613C230.807 200.613 230.708 200.613 230.511 200.613C230.314 200.613 230.216 200.613 230.216 200.613V200.133H233.889L233.34 203.161Z" fill="#1F031E"/>
<path d="M157.102 217.793C156.581 217.793 156.13 217.576 155.751 217.145C155.396 216.714 155.218 216.187 155.218 215.566C155.218 214.945 155.396 214.433 155.751 214.028C156.13 213.597 156.581 213.38 157.102 213.38C157.623 213.38 158.074 213.597 158.453 214.028C158.832 214.433 159.022 214.945 159.022 215.566C159.022 216.187 158.832 216.714 158.453 217.145C158.074 217.576 157.623 217.793 157.102 217.793ZM166.877 189.253H169.508V215H183.446V217.59H166.877V189.253Z" fill="#1F031E"/>
<defs>
<filter id="filter0_i_30_57" x="79" y="124.581" width="177.362" height="192.275" filterUnits="userSpaceOnUse" color-interpolation-filters="sRGB">
<feFlood flood-opacity="0" result="BackgroundImageFix"/>
<feBlend mode="normal" in="SourceGraphic" in2="BackgroundImageFix" result="shape"/>
<feColorMatrix in="SourceAlpha" type="matrix" values="0 0 0 0 0 0 0 0 0 0 0 0 0 0 0 0 0 0 127 0" result="hardAlpha"/>
<feOffset dy="2"/>
<feGaussianBlur stdDeviation="0.5"/>
<feComposite in2="hardAlpha" operator="arithmetic" k2="-1" k3="1"/>
<feColorMatrix type="matrix" values="0 0 0 0 0.120833 0 0 0 0 0.0132917 0 0 0 0 0.118273 0 0 0 0.1 0"/>
<feBlend mode="normal" in2="shape" result="effect1_innerShadow_30_57"/>
</filter>
<filter id="filter1_i_30_57" x="113.548" y="91.3494" width="177.362" height="192.276" filterUnits="userSpaceOnUse" color-interpolation-filters="sRGB">
<feFlood flood-opacity="0" result="BackgroundImageFix"/>
<feBlend mode="normal" in="SourceGraphic" in2="BackgroundImageFix" result="shape"/>
<feColorMatrix in="SourceAlpha" type="matrix" values="0 0 0 0 0 0 0 0 0 0 0 0 0 0 0 0 0 0 127 0" result="hardAlpha"/>
<feOffset dy="2"/>
<feGaussianBlur stdDeviation="0.5"/>
<feComposite in2="hardAlpha" operator="arithmetic" k2="-1" k3="1"/>
<feColorMatrix type="matrix" values="0 0 0 0 0.120833 0 0 0 0 0.0132917 0 0 0 0 0.118273 0 0 0 0.1 0"/>
<feBlend mode="normal" in2="shape" result="effect1_innerShadow_30_57"/>
</filter>
<filter id="filter2_i_30_57" x="143.638" y="138.64" width="177.362" height="192.276" filterUnits="userSpaceOnUse" color-interpolation-filters="sRGB">
<feFlood flood-opacity="0" result="BackgroundImageFix"/>
<feBlend mode="normal" in="SourceGraphic" in2="BackgroundImageFix" result="shape"/>
<feColorMatrix in="SourceAlpha" type="matrix" values="0 0 0 0 0 0 0 0 0 0 0 0 0 0 0 0 0 0 127 0" result="hardAlpha"/>
<feOffset dy="2"/>
<feGaussianBlur stdDeviation="0.5"/>
<feComposite in2="hardAlpha" operator="arithmetic" k2="-1" k3="1"/>
<feColorMatrix type="matrix" values="0 0 0 0 0.120833 0 0 0 0 0.0132917 0 0 0 0 0.118273 0 0 0 0.1 0"/>
<feBlend mode="normal" in2="shape" result="effect1_innerShadow_30_57"/>
</filter>
<linearGradient id="paint0_linear_30_57" x1="200" y1="0" x2="200" y2="420" gradientUnits="userSpaceOnUse">
<stop stop-color="#854083"/>
<stop offset="1" stop-color="#601F5E"/>
</linearGradient>
<linearGradient id="paint1_linear_30_57" x1="167.681" y1="124.316" x2="167.681" y2="316.121" gradientUnits="userSpaceOnUse">
<stop stop-color="#E08ADE"/>
<stop offset="1" stop-color="#CD77CB"/>
</linearGradient>
<linearGradient id="paint2_linear_30_57" x1="202.229" y1="91.0843" x2="202.229" y2="282.89" gradientUnits="userSpaceOnUse">
<stop stop-color="#E08ADE"/>
<stop offset="1" stop-color="#CD77CB"/>
</linearGradient>
<linearGradient id="paint3_linear_30_57" x1="232.319" y1="138.375" x2="232.319" y2="330.181" gradientUnits="userSpaceOnUse">
<stop stop-color="#E08ADE"/>
<stop offset="1" stop-color="#CD77CB"/>
</linearGradient>
</defs>
</svg>
